<svg
 id="Layer_1"
  enable-background="new 0 0 128 128" 
  height="40" 
  viewBox="0 0 128 128" width="100"
   xmlns="http://www.w3.org/2000/svg">
   <path d="m64 1.7c-22.2 0-40.2 18-40.2 40.2 0 38.3 40.2 65.1 40.2 65.1s40.2-26.8 40.2-65.1c0-22.2-18-40.2-40.2-40.2zm0 60.4c-11.2 0-20.2-9-20.2-20.2s9-20.2 20.2-20.2 20.2 9 20.2 20.2c0 11.2-9.1 20.2-20.2 20.2z"
    fill="#FFAC00"/>
   <!-- <path d="m107.2 89.8h-24c-5.7 6.5-12.2 12.2-19.2 17.2-7-5-13.5-10.7-19.2-17.2h-24l-10 36.4h106.3z"
    fill="#f9e14e"/> -->
   </svg>